<svg xmlns="http://www.w3.org/2000/svg" width="900" height="463" viewBox="0 0 900 463" role="img" aria-labelledby="title desc">
<title id="title">Preço em coins: este segmento baratos no EA FC em 11/07 — PS</title>
<desc id="desc">Gráfico gerado a partir da tabela publicada neste artigo.</desc>
<rect width="100%" height="100%" rx="20" fill="#0f172a"/>
<text x="28" y="42" fill="#f8fafc" font-family="system-ui,sans-serif" font-size="23" font-weight="700">Preço em coins</text>
<text x="28" y="70" fill="#94a3b8" font-family="system-ui,sans-serif" font-size="15">Dados do recorte publicado no artigo</text>
<text x="28" y="117" fill="#e2e8f0" font-family="system-ui,sans-serif" font-size="16">Nico Paz</text>
<rect x="285" y="95" width="480" height="28" rx="7" fill="#38bdf8"/>
<text x="775" y="116" fill="#f8fafc" font-family="system-ui,sans-serif" font-size="15" font-weight="700">15.000</text>
<text x="28" y="175" fill="#e2e8f0" font-family="system-ui,sans-serif" font-size="16">Alexia Putellas</text>
<rect x="285" y="153" width="256" height="28" rx="7" fill="#38bdf8"/>
<text x="551" y="174" fill="#f8fafc" font-family="system-ui,sans-serif" font-size="15" font-weight="700">8.000</text>
<text x="28" y="233" fill="#e2e8f0" font-family="system-ui,sans-serif" font-size="16">Aitana Bonmatí</text>
<rect x="285" y="211" width="256" height="28" rx="7" fill="#38bdf8"/>
<text x="551" y="232" fill="#f8fafc" font-family="system-ui,sans-serif" font-size="15" font-weight="700">8.000</text>
<text x="28" y="291" fill="#e2e8f0" font-family="system-ui,sans-serif" font-size="16">Rodri</text>
<rect x="285" y="269" width="64" height="28" rx="7" fill="#38bdf8"/>
<text x="359" y="290" fill="#f8fafc" font-family="system-ui,sans-serif" font-size="15" font-weight="700">2.000</text>
<text x="28" y="349" fill="#e2e8f0" font-family="system-ui,sans-serif" font-size="16">Caroline Graham Hansen</text>
<rect x="285" y="327" width="320" height="28" rx="7" fill="#38bdf8"/>
<text x="615" y="348" fill="#f8fafc" font-family="system-ui,sans-serif" font-size="15" font-weight="700">10.000</text>
<text x="28" y="407" fill="#e2e8f0" font-family="system-ui,sans-serif" font-size="16">Jude Bellingham</text>
<rect x="285" y="385" width="320" height="28" rx="7" fill="#38bdf8"/>
<text x="615" y="406" fill="#f8fafc" font-family="system-ui,sans-serif" font-size="15" font-weight="700">10.000</text>
</svg>
