<svg xmlns="http://www.w3.org/2000/svg" width="900" height="463" viewBox="0 0 900 463" role="img" aria-labelledby="title desc">
<title id="title">Preço em coins: Jogadores baratos EA FC em 21/07: abaixo de 15k — Console (PS)</title>
<desc id="desc">Gráfico gerado a partir da tabela publicada neste artigo.</desc>
<rect width="100%" height="100%" rx="20" fill="#0f172a"/>
<text x="28" y="42" fill="#f8fafc" font-family="system-ui,sans-serif" font-size="23" font-weight="700">Preço em coins</text>
<text x="28" y="70" fill="#94a3b8" font-family="system-ui,sans-serif" font-size="15">Dados do recorte publicado no artigo</text>
<text x="28" y="117" fill="#e2e8f0" font-family="system-ui,sans-serif" font-size="16">Lisandro Martínez</text>
<rect x="285" y="95" width="414" height="28" rx="7" fill="#38bdf8"/>
<text x="709" y="116" fill="#f8fafc" font-family="system-ui,sans-serif" font-size="15" font-weight="700">12.500</text>
<text x="28" y="175" fill="#e2e8f0" font-family="system-ui,sans-serif" font-size="16">Gregor Kobel</text>
<rect x="285" y="153" width="439" height="28" rx="7" fill="#38bdf8"/>
<text x="734" y="174" fill="#f8fafc" font-family="system-ui,sans-serif" font-size="15" font-weight="700">13.250</text>
<text x="28" y="233" fill="#e2e8f0" font-family="system-ui,sans-serif" font-size="16">Johan Manzambi</text>
<rect x="285" y="211" width="439" height="28" rx="7" fill="#38bdf8"/>
<text x="734" y="232" fill="#f8fafc" font-family="system-ui,sans-serif" font-size="15" font-weight="700">13.250</text>
<text x="28" y="291" fill="#e2e8f0" font-family="system-ui,sans-serif" font-size="16">Stephen Eustáquio</text>
<rect x="285" y="269" width="439" height="28" rx="7" fill="#38bdf8"/>
<text x="734" y="290" fill="#f8fafc" font-family="system-ui,sans-serif" font-size="15" font-weight="700">13.250</text>
<text x="28" y="349" fill="#e2e8f0" font-family="system-ui,sans-serif" font-size="16">Zion Suzuki</text>
<rect x="285" y="327" width="472" height="28" rx="7" fill="#38bdf8"/>
<text x="767" y="348" fill="#f8fafc" font-family="system-ui,sans-serif" font-size="15" font-weight="700">14.250</text>
<text x="28" y="407" fill="#e2e8f0" font-family="system-ui,sans-serif" font-size="16">Kerim Alajbegović</text>
<rect x="285" y="385" width="480" height="28" rx="7" fill="#38bdf8"/>
<text x="775" y="406" fill="#f8fafc" font-family="system-ui,sans-serif" font-size="15" font-weight="700">14.500</text>
</svg>
