<svg xmlns="http://www.w3.org/2000/svg" width="900" height="463" viewBox="0 0 900 463" role="img" aria-labelledby="title desc">
<title id="title">Preço em coins: Jogadores baratos EA FC em 26/07: abaixo de 15k — Console (PS)</title>
<desc id="desc">Gráfico gerado a partir da tabela publicada neste artigo.</desc>
<rect width="100%" height="100%" rx="20" fill="#0f172a"/>
<text x="28" y="42" fill="#f8fafc" font-family="system-ui,sans-serif" font-size="23" font-weight="700">Preço em coins</text>
<text x="28" y="70" fill="#94a3b8" font-family="system-ui,sans-serif" font-size="15">Dados do recorte publicado no artigo</text>
<text x="28" y="117" fill="#e2e8f0" font-family="system-ui,sans-serif" font-size="16">Ethan Mbappé</text>
<rect x="285" y="95" width="449" height="28" rx="7" fill="#38bdf8"/>
<text x="744" y="116" fill="#f8fafc" font-family="system-ui,sans-serif" font-size="15" font-weight="700">11.000</text>
<text x="28" y="175" fill="#e2e8f0" font-family="system-ui,sans-serif" font-size="16">Héctor Bellerín</text>
<rect x="285" y="153" width="449" height="28" rx="7" fill="#38bdf8"/>
<text x="744" y="174" fill="#f8fafc" font-family="system-ui,sans-serif" font-size="15" font-weight="700">11.000</text>
<text x="28" y="233" fill="#e2e8f0" font-family="system-ui,sans-serif" font-size="16">Arnaut Danjuma</text>
<rect x="285" y="211" width="449" height="28" rx="7" fill="#38bdf8"/>
<text x="744" y="232" fill="#f8fafc" font-family="system-ui,sans-serif" font-size="15" font-weight="700">11.000</text>
<text x="28" y="291" fill="#e2e8f0" font-family="system-ui,sans-serif" font-size="16">Xherdan Shaqiri</text>
<rect x="285" y="269" width="470" height="28" rx="7" fill="#38bdf8"/>
<text x="765" y="290" fill="#f8fafc" font-family="system-ui,sans-serif" font-size="15" font-weight="700">11.500</text>
<text x="28" y="349" fill="#e2e8f0" font-family="system-ui,sans-serif" font-size="16">Lorenzo Insigne</text>
<rect x="285" y="327" width="470" height="28" rx="7" fill="#38bdf8"/>
<text x="765" y="348" fill="#f8fafc" font-family="system-ui,sans-serif" font-size="15" font-weight="700">11.500</text>
<text x="28" y="407" fill="#e2e8f0" font-family="system-ui,sans-serif" font-size="16">Ivan Perišić</text>
<rect x="285" y="385" width="480" height="28" rx="7" fill="#38bdf8"/>
<text x="775" y="406" fill="#f8fafc" font-family="system-ui,sans-serif" font-size="15" font-weight="700">11.750</text>
</svg>
