<svg xmlns="http://www.w3.org/2000/svg" width="900" height="463" viewBox="0 0 900 463" role="img" aria-labelledby="title desc">
<title id="title">Variação em 7 dias: Investimentos EA FC em 24/07: radar de alta — PC</title>
<desc id="desc">Gráfico gerado a partir da tabela publicada neste artigo.</desc>
<rect width="100%" height="100%" rx="20" fill="#0f172a"/>
<text x="28" y="42" fill="#f8fafc" font-family="system-ui,sans-serif" font-size="23" font-weight="700">Variação em 7 dias</text>
<text x="28" y="70" fill="#94a3b8" font-family="system-ui,sans-serif" font-size="15">Dados do recorte publicado no artigo</text>
<text x="28" y="117" fill="#e2e8f0" font-family="system-ui,sans-serif" font-size="16">Lily Yohannes</text>
<rect x="285" y="95" width="480" height="28" rx="7" fill="#22c55e"/>
<text x="775" y="116" fill="#f8fafc" font-family="system-ui,sans-serif" font-size="15" font-weight="700">+83.3%</text>
<text x="28" y="175" fill="#e2e8f0" font-family="system-ui,sans-serif" font-size="16">Claudio Pizarro</text>
<rect x="285" y="153" width="468" height="28" rx="7" fill="#22c55e"/>
<text x="763" y="174" fill="#f8fafc" font-family="system-ui,sans-serif" font-size="15" font-weight="700">+81.2%</text>
<text x="28" y="233" fill="#e2e8f0" font-family="system-ui,sans-serif" font-size="16">Grace Clinton</text>
<rect x="285" y="211" width="456" height="28" rx="7" fill="#22c55e"/>
<text x="751" y="232" fill="#f8fafc" font-family="system-ui,sans-serif" font-size="15" font-weight="700">+79.1%</text>
<text x="28" y="291" fill="#e2e8f0" font-family="system-ui,sans-serif" font-size="16">Hidetoshi Nakata</text>
<rect x="285" y="269" width="444" height="28" rx="7" fill="#22c55e"/>
<text x="739" y="290" fill="#f8fafc" font-family="system-ui,sans-serif" font-size="15" font-weight="700">+77.1%</text>
<text x="28" y="349" fill="#e2e8f0" font-family="system-ui,sans-serif" font-size="16">Emmanuel Petit</text>
<rect x="285" y="327" width="421" height="28" rx="7" fill="#22c55e"/>
<text x="716" y="348" fill="#f8fafc" font-family="system-ui,sans-serif" font-size="15" font-weight="700">+73.1%</text>
<text x="28" y="407" fill="#e2e8f0" font-family="system-ui,sans-serif" font-size="16">Dennis Man</text>
<rect x="285" y="385" width="405" height="28" rx="7" fill="#22c55e"/>
<text x="700" y="406" fill="#f8fafc" font-family="system-ui,sans-serif" font-size="15" font-weight="700">+70.3%</text>
</svg>
