<svg xmlns="http://www.w3.org/2000/svg" width="900" height="463" viewBox="0 0 900 463" role="img" aria-labelledby="title desc">
<title id="title">Variação em 7 dias: Investimentos EA FC em 22/07: radar de alta — Console (PS)</title>
<desc id="desc">Gráfico gerado a partir da tabela publicada neste artigo.</desc>
<rect width="100%" height="100%" rx="20" fill="#0f172a"/>
<text x="28" y="42" fill="#f8fafc" font-family="system-ui,sans-serif" font-size="23" font-weight="700">Variação em 7 dias</text>
<text x="28" y="70" fill="#94a3b8" font-family="system-ui,sans-serif" font-size="15">Dados do recorte publicado no artigo</text>
<text x="28" y="117" fill="#e2e8f0" font-family="system-ui,sans-serif" font-size="16">Kerem Aktürkoğlu</text>
<rect x="285" y="95" width="480" height="28" rx="7" fill="#22c55e"/>
<text x="775" y="116" fill="#f8fafc" font-family="system-ui,sans-serif" font-size="15" font-weight="700">+88.1%</text>
<text x="28" y="175" fill="#e2e8f0" font-family="system-ui,sans-serif" font-size="16">Adalberto Carrasquilla</text>
<rect x="285" y="153" width="479" height="28" rx="7" fill="#22c55e"/>
<text x="774" y="174" fill="#f8fafc" font-family="system-ui,sans-serif" font-size="15" font-weight="700">+88.0%</text>
<text x="28" y="233" fill="#e2e8f0" font-family="system-ui,sans-serif" font-size="16">Pablo Barrios</text>
<rect x="285" y="211" width="467" height="28" rx="7" fill="#22c55e"/>
<text x="762" y="232" fill="#f8fafc" font-family="system-ui,sans-serif" font-size="15" font-weight="700">+85.8%</text>
<text x="28" y="291" fill="#e2e8f0" font-family="system-ui,sans-serif" font-size="16">Lilly Reale</text>
<rect x="285" y="269" width="461" height="28" rx="7" fill="#22c55e"/>
<text x="756" y="290" fill="#f8fafc" font-family="system-ui,sans-serif" font-size="15" font-weight="700">+84.7%</text>
<text x="28" y="349" fill="#e2e8f0" font-family="system-ui,sans-serif" font-size="16">Daniela Agote</text>
<rect x="285" y="327" width="457" height="28" rx="7" fill="#22c55e"/>
<text x="752" y="348" fill="#f8fafc" font-family="system-ui,sans-serif" font-size="15" font-weight="700">+83.9%</text>
<text x="28" y="407" fill="#e2e8f0" font-family="system-ui,sans-serif" font-size="16">Lucie Calba</text>
<rect x="285" y="385" width="444" height="28" rx="7" fill="#22c55e"/>
<text x="739" y="406" fill="#f8fafc" font-family="system-ui,sans-serif" font-size="15" font-weight="700">+81.5%</text>
</svg>
