<svg xmlns="http://www.w3.org/2000/svg" width="900" height="463" viewBox="0 0 900 463" role="img" aria-labelledby="title desc">
<title id="title">Variação em 7 dias: Momentum de este segmento no EA FC em 31/05 — PC</title>
<desc id="desc">Gráfico gerado a partir da tabela publicada neste artigo.</desc>
<rect width="100%" height="100%" rx="20" fill="#0f172a"/>
<text x="28" y="42" fill="#f8fafc" font-family="system-ui,sans-serif" font-size="23" font-weight="700">Variação em 7 dias</text>
<text x="28" y="70" fill="#94a3b8" font-family="system-ui,sans-serif" font-size="15">Dados do recorte publicado no artigo</text>
<text x="28" y="117" fill="#e2e8f0" font-family="system-ui,sans-serif" font-size="16">Lotta Schelin</text>
<rect x="285" y="95" width="480" height="28" rx="7" fill="#22c55e"/>
<text x="775" y="116" fill="#f8fafc" font-family="system-ui,sans-serif" font-size="15" font-weight="700">+84.2%</text>
<text x="28" y="175" fill="#e2e8f0" font-family="system-ui,sans-serif" font-size="16">Paul Onuachu</text>
<rect x="285" y="153" width="479" height="28" rx="7" fill="#22c55e"/>
<text x="774" y="174" fill="#f8fafc" font-family="system-ui,sans-serif" font-size="15" font-weight="700">+84.0%</text>
<text x="28" y="233" fill="#e2e8f0" font-family="system-ui,sans-serif" font-size="16">Mateo Kovačić</text>
<rect x="285" y="211" width="432" height="28" rx="7" fill="#22c55e"/>
<text x="727" y="232" fill="#f8fafc" font-family="system-ui,sans-serif" font-size="15" font-weight="700">+75.8%</text>
<text x="28" y="291" fill="#e2e8f0" font-family="system-ui,sans-serif" font-size="16">Nuno Tavares</text>
<rect x="285" y="269" width="405" height="28" rx="7" fill="#22c55e"/>
<text x="700" y="290" fill="#f8fafc" font-family="system-ui,sans-serif" font-size="15" font-weight="700">+71.1%</text>
<text x="28" y="349" fill="#e2e8f0" font-family="system-ui,sans-serif" font-size="16">Ben Chilwell</text>
<rect x="285" y="327" width="403" height="28" rx="7" fill="#22c55e"/>
<text x="698" y="348" fill="#f8fafc" font-family="system-ui,sans-serif" font-size="15" font-weight="700">+70.7%</text>
<text x="28" y="407" fill="#e2e8f0" font-family="system-ui,sans-serif" font-size="16">Trincão</text>
<rect x="285" y="385" width="356" height="28" rx="7" fill="#22c55e"/>
<text x="651" y="406" fill="#f8fafc" font-family="system-ui,sans-serif" font-size="15" font-weight="700">+62.5%</text>
</svg>
