<svg xmlns="http://www.w3.org/2000/svg" width="900" height="463" viewBox="0 0 900 463" role="img" aria-labelledby="title desc">
<title id="title">24h: Eredivisie no EA FC em 14/07: altas e baixas — PS</title>
<desc id="desc">Gráfico gerado a partir da tabela publicada neste artigo.</desc>
<rect width="100%" height="100%" rx="20" fill="#0f172a"/>
<text x="28" y="42" fill="#f8fafc" font-family="system-ui,sans-serif" font-size="23" font-weight="700">24h</text>
<text x="28" y="70" fill="#94a3b8" font-family="system-ui,sans-serif" font-size="15">Dados do recorte publicado no artigo</text>
<text x="28" y="117" fill="#e2e8f0" font-family="system-ui,sans-serif" font-size="16">Jaap Stam</text>
<rect x="285" y="95" width="202" height="28" rx="7" fill="#22c55e"/>
<text x="497" y="116" fill="#f8fafc" font-family="system-ui,sans-serif" font-size="15" font-weight="700">+17.3%</text>
<text x="28" y="175" fill="#e2e8f0" font-family="system-ui,sans-serif" font-size="16">Anis Hadj-Moussa</text>
<rect x="285" y="153" width="129" height="28" rx="7" fill="#22c55e"/>
<text x="424" y="174" fill="#f8fafc" font-family="system-ui,sans-serif" font-size="15" font-weight="700">+11.1%</text>
<text x="28" y="233" fill="#e2e8f0" font-family="system-ui,sans-serif" font-size="16">Wout Weghorst</text>
<rect x="285" y="211" width="160" height="28" rx="7" fill="#22c55e"/>
<text x="455" y="232" fill="#f8fafc" font-family="system-ui,sans-serif" font-size="15" font-weight="700">+13.7%</text>
<text x="28" y="291" fill="#e2e8f0" font-family="system-ui,sans-serif" font-size="16">Jari Litmanen</text>
<rect x="285" y="269" width="463" height="28" rx="7" fill="#22c55e"/>
<text x="758" y="290" fill="#f8fafc" font-family="system-ui,sans-serif" font-size="15" font-weight="700">+39.7%</text>
<text x="28" y="349" fill="#e2e8f0" font-family="system-ui,sans-serif" font-size="16">Park Ji Sung</text>
<rect x="285" y="327" width="480" height="28" rx="7" fill="#22c55e"/>
<text x="775" y="348" fill="#f8fafc" font-family="system-ui,sans-serif" font-size="15" font-weight="700">+41.2%</text>
<text x="28" y="407" fill="#e2e8f0" font-family="system-ui,sans-serif" font-size="16">Dennis Man</text>
<rect x="285" y="385" width="291" height="28" rx="7" fill="#22c55e"/>
<text x="586" y="406" fill="#f8fafc" font-family="system-ui,sans-serif" font-size="15" font-weight="700">+25.0%</text>
</svg>
