<svg xmlns="http://www.w3.org/2000/svg" width="900" height="463" viewBox="0 0 900 463" role="img" aria-labelledby="title desc">
<title id="title">24h: Mercado Liga Portugal no EA FC em 04/08 — PS</title>
<desc id="desc">Gráfico gerado a partir da tabela publicada neste artigo.</desc>
<rect width="100%" height="100%" rx="20" fill="#0f172a"/>
<text x="28" y="42" fill="#f8fafc" font-family="system-ui,sans-serif" font-size="23" font-weight="700">24h</text>
<text x="28" y="70" fill="#94a3b8" font-family="system-ui,sans-serif" font-size="15">Dados do recorte publicado no artigo</text>
<text x="28" y="117" fill="#e2e8f0" font-family="system-ui,sans-serif" font-size="16">Gonçalo Inácio</text>
<rect x="285" y="95" width="34" height="28" rx="7" fill="#f87171"/>
<text x="329" y="116" fill="#f8fafc" font-family="system-ui,sans-serif" font-size="15" font-weight="700">-3.4%</text>
<text x="28" y="175" fill="#e2e8f0" font-family="system-ui,sans-serif" font-size="16">Larrazabal</text>
<rect x="285" y="153" width="92" height="28" rx="7" fill="#f87171"/>
<text x="387" y="174" fill="#f8fafc" font-family="system-ui,sans-serif" font-size="15" font-weight="700">-9.1%</text>
<text x="28" y="233" fill="#e2e8f0" font-family="system-ui,sans-serif" font-size="16">Ousmane Diomande</text>
<rect x="285" y="211" width="480" height="28" rx="7" fill="#22c55e"/>
<text x="775" y="232" fill="#f8fafc" font-family="system-ui,sans-serif" font-size="15" font-weight="700">+47.4%</text>
<text x="28" y="291" fill="#e2e8f0" font-family="system-ui,sans-serif" font-size="16">William Gomes</text>
<rect x="285" y="269" width="90" height="28" rx="7" fill="#f87171"/>
<text x="385" y="290" fill="#f8fafc" font-family="system-ui,sans-serif" font-size="15" font-weight="700">-8.9%</text>
<text x="28" y="349" fill="#e2e8f0" font-family="system-ui,sans-serif" font-size="16">Rodrigo Zalazar</text>
<rect x="285" y="327" width="117" height="28" rx="7" fill="#f87171"/>
<text x="412" y="348" fill="#f8fafc" font-family="system-ui,sans-serif" font-size="15" font-weight="700">-11.6%</text>
<text x="28" y="407" fill="#e2e8f0" font-family="system-ui,sans-serif" font-size="16">José Fonte</text>
<rect x="285" y="385" width="345" height="28" rx="7" fill="#22c55e"/>
<text x="640" y="406" fill="#f8fafc" font-family="system-ui,sans-serif" font-size="15" font-weight="700">+34.1%</text>
</svg>
