<svg xmlns="http://www.w3.org/2000/svg" width="900" height="463" viewBox="0 0 900 463" role="img" aria-labelledby="title desc">
<title id="title">24h: Mercado ROSHN Saudi League no EA FC em 17/07 — PS</title>
<desc id="desc">Gráfico gerado a partir da tabela publicada neste artigo.</desc>
<rect width="100%" height="100%" rx="20" fill="#0f172a"/>
<text x="28" y="42" fill="#f8fafc" font-family="system-ui,sans-serif" font-size="23" font-weight="700">24h</text>
<text x="28" y="70" fill="#94a3b8" font-family="system-ui,sans-serif" font-size="15">Dados do recorte publicado no artigo</text>
<text x="28" y="117" fill="#e2e8f0" font-family="system-ui,sans-serif" font-size="16">Cristiano Ronaldo</text>
<rect x="285" y="95" width="241" height="28" rx="7" fill="#22c55e"/>
<text x="536" y="116" fill="#f8fafc" font-family="system-ui,sans-serif" font-size="15" font-weight="700">+8.8%</text>
<text x="28" y="175" fill="#e2e8f0" font-family="system-ui,sans-serif" font-size="16">Cristiano Ronaldo</text>
<rect x="285" y="153" width="379" height="28" rx="7" fill="#f87171"/>
<text x="674" y="174" fill="#f8fafc" font-family="system-ui,sans-serif" font-size="15" font-weight="700">-13.8%</text>
<text x="28" y="233" fill="#e2e8f0" font-family="system-ui,sans-serif" font-size="16">Cristiano Ronaldo</text>
<rect x="285" y="211" width="252" height="28" rx="7" fill="#f87171"/>
<text x="547" y="232" fill="#f8fafc" font-family="system-ui,sans-serif" font-size="15" font-weight="700">-9.2%</text>
<text x="28" y="291" fill="#e2e8f0" font-family="system-ui,sans-serif" font-size="16">Cristiano Ronaldo</text>
<rect x="285" y="269" width="480" height="28" rx="7" fill="#f87171"/>
<text x="775" y="290" fill="#f8fafc" font-family="system-ui,sans-serif" font-size="15" font-weight="700">-17.5%</text>
<text x="28" y="349" fill="#e2e8f0" font-family="system-ui,sans-serif" font-size="16">João Félix</text>
<rect x="285" y="327" width="104" height="28" rx="7" fill="#f87171"/>
<text x="399" y="348" fill="#f8fafc" font-family="system-ui,sans-serif" font-size="15" font-weight="700">-3.8%</text>
<text x="28" y="407" fill="#e2e8f0" font-family="system-ui,sans-serif" font-size="16">Cristiano Ronaldo</text>
<rect x="285" y="385" width="8" height="28" rx="7" fill="#22c55e"/>
<text x="303" y="406" fill="#f8fafc" font-family="system-ui,sans-serif" font-size="15" font-weight="700">+0.2%</text>
</svg>
