<svg xmlns="http://www.w3.org/2000/svg" width="900" height="463" viewBox="0 0 900 463" role="img" aria-labelledby="title desc">
<title id="title">24h: Mercado Eredivisie no EA FC em 24/07 — PS</title>
<desc id="desc">Gráfico gerado a partir da tabela publicada neste artigo.</desc>
<rect width="100%" height="100%" rx="20" fill="#0f172a"/>
<text x="28" y="42" fill="#f8fafc" font-family="system-ui,sans-serif" font-size="23" font-weight="700">24h</text>
<text x="28" y="70" fill="#94a3b8" font-family="system-ui,sans-serif" font-size="15">Dados do recorte publicado no artigo</text>
<text x="28" y="117" fill="#e2e8f0" font-family="system-ui,sans-serif" font-size="16">Jaap Stam</text>
<rect x="285" y="95" width="480" height="28" rx="7" fill="#f87171"/>
<text x="775" y="116" fill="#f8fafc" font-family="system-ui,sans-serif" font-size="15" font-weight="700">-35.3%</text>
<text x="28" y="175" fill="#e2e8f0" font-family="system-ui,sans-serif" font-size="16">Josip Šutalo</text>
<rect x="285" y="153" width="192" height="28" rx="7" fill="#f87171"/>
<text x="487" y="174" fill="#f8fafc" font-family="system-ui,sans-serif" font-size="15" font-weight="700">-14.1%</text>
<text x="28" y="233" fill="#e2e8f0" font-family="system-ui,sans-serif" font-size="16">Park Ji Sung</text>
<rect x="285" y="211" width="102" height="28" rx="7" fill="#f87171"/>
<text x="397" y="232" fill="#f8fafc" font-family="system-ui,sans-serif" font-size="15" font-weight="700">-7.5%</text>
<text x="28" y="291" fill="#e2e8f0" font-family="system-ui,sans-serif" font-size="16">Kento Shiogai</text>
<rect x="285" y="269" width="242" height="28" rx="7" fill="#22c55e"/>
<text x="537" y="290" fill="#f8fafc" font-family="system-ui,sans-serif" font-size="15" font-weight="700">+17.8%</text>
<text x="28" y="349" fill="#e2e8f0" font-family="system-ui,sans-serif" font-size="16">Youri Baas</text>
<rect x="285" y="327" width="286" height="28" rx="7" fill="#f87171"/>
<text x="581" y="348" fill="#f8fafc" font-family="system-ui,sans-serif" font-size="15" font-weight="700">-21.0%</text>
<text x="28" y="407" fill="#e2e8f0" font-family="system-ui,sans-serif" font-size="16">Jordan Ayew</text>
<rect x="285" y="385" width="329" height="28" rx="7" fill="#22c55e"/>
<text x="624" y="406" fill="#f8fafc" font-family="system-ui,sans-serif" font-size="15" font-weight="700">+24.2%</text>
</svg>
