<svg xmlns="http://www.w3.org/2000/svg" width="900" height="463" viewBox="0 0 900 463" role="img" aria-labelledby="title desc">
<title id="title">24h: Liga Portugal no EA FC em 15/07: altas e baixas — PS</title>
<desc id="desc">Gráfico gerado a partir da tabela publicada neste artigo.</desc>
<rect width="100%" height="100%" rx="20" fill="#0f172a"/>
<text x="28" y="42" fill="#f8fafc" font-family="system-ui,sans-serif" font-size="23" font-weight="700">24h</text>
<text x="28" y="70" fill="#94a3b8" font-family="system-ui,sans-serif" font-size="15">Dados do recorte publicado no artigo</text>
<text x="28" y="117" fill="#e2e8f0" font-family="system-ui,sans-serif" font-size="16">Richard Ríos</text>
<rect x="285" y="95" width="480" height="28" rx="7" fill="#22c55e"/>
<text x="775" y="116" fill="#f8fafc" font-family="system-ui,sans-serif" font-size="15" font-weight="700">+50.0%</text>
<text x="28" y="175" fill="#e2e8f0" font-family="system-ui,sans-serif" font-size="16">Anatoliy Trubin</text>
<rect x="285" y="153" width="62" height="28" rx="7" fill="#f87171"/>
<text x="357" y="174" fill="#f8fafc" font-family="system-ui,sans-serif" font-size="15" font-weight="700">-6.5%</text>
<text x="28" y="233" fill="#e2e8f0" font-family="system-ui,sans-serif" font-size="16">Quaresma</text>
<rect x="285" y="211" width="8" height="28" rx="7" fill="#22c55e"/>
<text x="303" y="232" fill="#f8fafc" font-family="system-ui,sans-serif" font-size="15" font-weight="700">+0.0%</text>
<text x="28" y="291" fill="#e2e8f0" font-family="system-ui,sans-serif" font-size="16">Richard Ríos</text>
<rect x="285" y="269" width="131" height="28" rx="7" fill="#f87171"/>
<text x="426" y="290" fill="#f8fafc" font-family="system-ui,sans-serif" font-size="15" font-weight="700">-13.6%</text>
<text x="28" y="349" fill="#e2e8f0" font-family="system-ui,sans-serif" font-size="16">Nicolás Otamendi</text>
<rect x="285" y="327" width="310" height="28" rx="7" fill="#22c55e"/>
<text x="605" y="348" fill="#f8fafc" font-family="system-ui,sans-serif" font-size="15" font-weight="700">+32.3%</text>
<text x="28" y="407" fill="#e2e8f0" font-family="system-ui,sans-serif" font-size="16">João Moutinho</text>
<rect x="285" y="385" width="167" height="28" rx="7" fill="#22c55e"/>
<text x="462" y="406" fill="#f8fafc" font-family="system-ui,sans-serif" font-size="15" font-weight="700">+17.4%</text>
</svg>
