<svg xmlns="http://www.w3.org/2000/svg" width="900" height="463" viewBox="0 0 900 463" role="img" aria-labelledby="title desc">
<title id="title">24h: Mercado da Trendyol Süper Lig no EA FC (16/07/2026): cartas mais valiosas e em alta — Console (PS)</title>
<desc id="desc">Gráfico gerado a partir da tabela publicada neste artigo.</desc>
<rect width="100%" height="100%" rx="20" fill="#0f172a"/>
<text x="28" y="42" fill="#f8fafc" font-family="system-ui,sans-serif" font-size="23" font-weight="700">24h</text>
<text x="28" y="70" fill="#94a3b8" font-family="system-ui,sans-serif" font-size="15">Dados do recorte publicado no artigo</text>
<text x="28" y="117" fill="#e2e8f0" font-family="system-ui,sans-serif" font-size="16">Quaresma</text>
<rect x="285" y="95" width="19" height="28" rx="7" fill="#f87171"/>
<text x="314" y="116" fill="#f8fafc" font-family="system-ui,sans-serif" font-size="15" font-weight="700">-1.6%</text>
<text x="28" y="175" fill="#e2e8f0" font-family="system-ui,sans-serif" font-size="16">Victor Osimhen</text>
<rect x="285" y="153" width="156" height="28" rx="7" fill="#f87171"/>
<text x="451" y="174" fill="#f8fafc" font-family="system-ui,sans-serif" font-size="15" font-weight="700">-13.1%</text>
<text x="28" y="233" fill="#e2e8f0" font-family="system-ui,sans-serif" font-size="16">Victor Osimhen</text>
<rect x="285" y="211" width="380" height="28" rx="7" fill="#22c55e"/>
<text x="675" y="232" fill="#f8fafc" font-family="system-ui,sans-serif" font-size="15" font-weight="700">+31.8%</text>
<text x="28" y="291" fill="#e2e8f0" font-family="system-ui,sans-serif" font-size="16">N&#x27;Golo Kanté</text>
<rect x="285" y="269" width="36" height="28" rx="7" fill="#22c55e"/>
<text x="331" y="290" fill="#f8fafc" font-family="system-ui,sans-serif" font-size="15" font-weight="700">+3.0%</text>
<text x="28" y="349" fill="#e2e8f0" font-family="system-ui,sans-serif" font-size="16">Jayden Oosterwolde</text>
<rect x="285" y="327" width="60" height="28" rx="7" fill="#22c55e"/>
<text x="355" y="348" fill="#f8fafc" font-family="system-ui,sans-serif" font-size="15" font-weight="700">+5.0%</text>
<text x="28" y="407" fill="#e2e8f0" font-family="system-ui,sans-serif" font-size="16">Mario Lemina</text>
<rect x="285" y="385" width="480" height="28" rx="7" fill="#22c55e"/>
<text x="775" y="406" fill="#f8fafc" font-family="system-ui,sans-serif" font-size="15" font-weight="700">+40.2%</text>
</svg>
