<svg xmlns="http://www.w3.org/2000/svg" width="900" height="463" viewBox="0 0 900 463" role="img" aria-labelledby="title desc">
<title id="title">24h: Mercado MLS no EA FC em 18/07 — PS</title>
<desc id="desc">Gráfico gerado a partir da tabela publicada neste artigo.</desc>
<rect width="100%" height="100%" rx="20" fill="#0f172a"/>
<text x="28" y="42" fill="#f8fafc" font-family="system-ui,sans-serif" font-size="23" font-weight="700">24h</text>
<text x="28" y="70" fill="#94a3b8" font-family="system-ui,sans-serif" font-size="15">Dados do recorte publicado no artigo</text>
<text x="28" y="117" fill="#e2e8f0" font-family="system-ui,sans-serif" font-size="16">Lionel Messi</text>
<rect x="285" y="95" width="480" height="28" rx="7" fill="#f87171"/>
<text x="775" y="116" fill="#f8fafc" font-family="system-ui,sans-serif" font-size="15" font-weight="700">-16.9%</text>
<text x="28" y="175" fill="#e2e8f0" font-family="system-ui,sans-serif" font-size="16">Luis Suárez</text>
<rect x="285" y="153" width="102" height="28" rx="7" fill="#f87171"/>
<text x="397" y="174" fill="#f8fafc" font-family="system-ui,sans-serif" font-size="15" font-weight="700">-3.6%</text>
<text x="28" y="233" fill="#e2e8f0" font-family="system-ui,sans-serif" font-size="16">Thomas Müller</text>
<rect x="285" y="211" width="389" height="28" rx="7" fill="#f87171"/>
<text x="684" y="232" fill="#f8fafc" font-family="system-ui,sans-serif" font-size="15" font-weight="700">-13.7%</text>
<text x="28" y="291" fill="#e2e8f0" font-family="system-ui,sans-serif" font-size="16">Heung Min Son</text>
<rect x="285" y="269" width="131" height="28" rx="7" fill="#f87171"/>
<text x="426" y="290" fill="#f8fafc" font-family="system-ui,sans-serif" font-size="15" font-weight="700">-4.6%</text>
<text x="28" y="349" fill="#e2e8f0" font-family="system-ui,sans-serif" font-size="16">Marco Reus</text>
<rect x="285" y="327" width="281" height="28" rx="7" fill="#22c55e"/>
<text x="576" y="348" fill="#f8fafc" font-family="system-ui,sans-serif" font-size="15" font-weight="700">+9.9%</text>
<text x="28" y="407" fill="#e2e8f0" font-family="system-ui,sans-serif" font-size="16">Lionel Messi</text>
<rect x="285" y="385" width="327" height="28" rx="7" fill="#f87171"/>
<text x="622" y="406" fill="#f8fafc" font-family="system-ui,sans-serif" font-size="15" font-weight="700">-11.5%</text>
</svg>
