<svg xmlns="http://www.w3.org/2000/svg" width="900" height="463" viewBox="0 0 900 463" role="img" aria-labelledby="title desc">
<title id="title">24h: Mercado Bundesliga no EA FC em 22/07 — PS</title>
<desc id="desc">Gráfico gerado a partir da tabela publicada neste artigo.</desc>
<rect width="100%" height="100%" rx="20" fill="#0f172a"/>
<text x="28" y="42" fill="#f8fafc" font-family="system-ui,sans-serif" font-size="23" font-weight="700">24h</text>
<text x="28" y="70" fill="#94a3b8" font-family="system-ui,sans-serif" font-size="15">Dados do recorte publicado no artigo</text>
<text x="28" y="117" fill="#e2e8f0" font-family="system-ui,sans-serif" font-size="16">Lennart Karl</text>
<rect x="285" y="95" width="147" height="28" rx="7" fill="#f87171"/>
<text x="442" y="116" fill="#f8fafc" font-family="system-ui,sans-serif" font-size="15" font-weight="700">-6.4%</text>
<text x="28" y="175" fill="#e2e8f0" font-family="system-ui,sans-serif" font-size="16">Michael Olise</text>
<rect x="285" y="153" width="271" height="28" rx="7" fill="#f87171"/>
<text x="566" y="174" fill="#f8fafc" font-family="system-ui,sans-serif" font-size="15" font-weight="700">-11.8%</text>
<text x="28" y="233" fill="#e2e8f0" font-family="system-ui,sans-serif" font-size="16">Jobe Bellingham</text>
<rect x="285" y="211" width="480" height="28" rx="7" fill="#f87171"/>
<text x="775" y="232" fill="#f8fafc" font-family="system-ui,sans-serif" font-size="15" font-weight="700">-20.9%</text>
<text x="28" y="291" fill="#e2e8f0" font-family="system-ui,sans-serif" font-size="16">Serge Gnabry</text>
<rect x="285" y="269" width="115" height="28" rx="7" fill="#22c55e"/>
<text x="410" y="290" fill="#f8fafc" font-family="system-ui,sans-serif" font-size="15" font-weight="700">+5.0%</text>
<text x="28" y="349" fill="#e2e8f0" font-family="system-ui,sans-serif" font-size="16">Serhou Guirassy</text>
<rect x="285" y="327" width="195" height="28" rx="7" fill="#f87171"/>
<text x="490" y="348" fill="#f8fafc" font-family="system-ui,sans-serif" font-size="15" font-weight="700">-8.5%</text>
<text x="28" y="407" fill="#e2e8f0" font-family="system-ui,sans-serif" font-size="16">Harry Kane</text>
<rect x="285" y="385" width="427" height="28" rx="7" fill="#f87171"/>
<text x="722" y="406" fill="#f8fafc" font-family="system-ui,sans-serif" font-size="15" font-weight="700">-18.6%</text>
</svg>
