<svg xmlns="http://www.w3.org/2000/svg" width="900" height="463" viewBox="0 0 900 463" role="img" aria-labelledby="title desc">
<title id="title">Variação em 24h: este segmento no EA FC em 18/06: altas e baixas — PS</title>
<desc id="desc">Gráfico gerado a partir da tabela publicada neste artigo.</desc>
<rect width="100%" height="100%" rx="20" fill="#0f172a"/>
<text x="28" y="42" fill="#f8fafc" font-family="system-ui,sans-serif" font-size="23" font-weight="700">Variação em 24h</text>
<text x="28" y="70" fill="#94a3b8" font-family="system-ui,sans-serif" font-size="15">Dados do recorte publicado no artigo</text>
<text x="28" y="117" fill="#e2e8f0" font-family="system-ui,sans-serif" font-size="16">Ilan Kebbal</text>
<rect x="285" y="95" width="480" height="28" rx="7" fill="#22c55e"/>
<text x="775" y="116" fill="#f8fafc" font-family="system-ui,sans-serif" font-size="15" font-weight="700">+59.0%</text>
<text x="28" y="175" fill="#e2e8f0" font-family="system-ui,sans-serif" font-size="16">Carson Pickett</text>
<rect x="285" y="153" width="442" height="28" rx="7" fill="#22c55e"/>
<text x="737" y="174" fill="#f8fafc" font-family="system-ui,sans-serif" font-size="15" font-weight="700">+54.3%</text>
<text x="28" y="233" fill="#e2e8f0" font-family="system-ui,sans-serif" font-size="16">Denise O&#x27;Sullivan</text>
<rect x="285" y="211" width="414" height="28" rx="7" fill="#22c55e"/>
<text x="709" y="232" fill="#f8fafc" font-family="system-ui,sans-serif" font-size="15" font-weight="700">+50.9%</text>
<text x="28" y="291" fill="#e2e8f0" font-family="system-ui,sans-serif" font-size="16">Blaise Matuidi</text>
<rect x="285" y="269" width="407" height="28" rx="7" fill="#22c55e"/>
<text x="702" y="290" fill="#f8fafc" font-family="system-ui,sans-serif" font-size="15" font-weight="700">+50.0%</text>
<text x="28" y="349" fill="#e2e8f0" font-family="system-ui,sans-serif" font-size="16">Deniz Undav</text>
<rect x="285" y="327" width="399" height="28" rx="7" fill="#22c55e"/>
<text x="694" y="348" fill="#f8fafc" font-family="system-ui,sans-serif" font-size="15" font-weight="700">+49.1%</text>
<text x="28" y="407" fill="#e2e8f0" font-family="system-ui,sans-serif" font-size="16">Oleksandr Zubkov</text>
<rect x="285" y="385" width="384" height="28" rx="7" fill="#22c55e"/>
<text x="679" y="406" fill="#f8fafc" font-family="system-ui,sans-serif" font-size="15" font-weight="700">+47.2%</text>
</svg>
