<svg xmlns="http://www.w3.org/2000/svg" width="900" height="463" viewBox="0 0 900 463" role="img" aria-labelledby="title desc">
<title id="title">Variação em 24h: este segmento no EA FC em 31/05: altas e baixas — PC</title>
<desc id="desc">Gráfico gerado a partir da tabela publicada neste artigo.</desc>
<rect width="100%" height="100%" rx="20" fill="#0f172a"/>
<text x="28" y="42" fill="#f8fafc" font-family="system-ui,sans-serif" font-size="23" font-weight="700">Variação em 24h</text>
<text x="28" y="70" fill="#94a3b8" font-family="system-ui,sans-serif" font-size="15">Dados do recorte publicado no artigo</text>
<text x="28" y="117" fill="#e2e8f0" font-family="system-ui,sans-serif" font-size="16">Morgan Gibbs-White</text>
<rect x="285" y="95" width="480" height="28" rx="7" fill="#22c55e"/>
<text x="775" y="116" fill="#f8fafc" font-family="system-ui,sans-serif" font-size="15" font-weight="700">+60.0%</text>
<text x="28" y="175" fill="#e2e8f0" font-family="system-ui,sans-serif" font-size="16">Álvaro Carreras</text>
<rect x="285" y="153" width="475" height="28" rx="7" fill="#22c55e"/>
<text x="770" y="174" fill="#f8fafc" font-family="system-ui,sans-serif" font-size="15" font-weight="700">+59.4%</text>
<text x="28" y="233" fill="#e2e8f0" font-family="system-ui,sans-serif" font-size="16">Pierre-Emile Højbjerg</text>
<rect x="285" y="211" width="472" height="28" rx="7" fill="#22c55e"/>
<text x="767" y="232" fill="#f8fafc" font-family="system-ui,sans-serif" font-size="15" font-weight="700">+59.0%</text>
<text x="28" y="291" fill="#e2e8f0" font-family="system-ui,sans-serif" font-size="16">Ahmetcan Kaplan</text>
<rect x="285" y="269" width="466" height="28" rx="7" fill="#22c55e"/>
<text x="761" y="290" fill="#f8fafc" font-family="system-ui,sans-serif" font-size="15" font-weight="700">+58.3%</text>
<text x="28" y="349" fill="#e2e8f0" font-family="system-ui,sans-serif" font-size="16">William Saliba</text>
<rect x="285" y="327" width="465" height="28" rx="7" fill="#22c55e"/>
<text x="760" y="348" fill="#f8fafc" font-family="system-ui,sans-serif" font-size="15" font-weight="700">+58.1%</text>
<text x="28" y="407" fill="#e2e8f0" font-family="system-ui,sans-serif" font-size="16">Sakina Karchaoui</text>
<rect x="285" y="385" width="458" height="28" rx="7" fill="#22c55e"/>
<text x="753" y="406" fill="#f8fafc" font-family="system-ui,sans-serif" font-size="15" font-weight="700">+57.3%</text>
</svg>
